<?xml version="1.0" standalone="no"?>
<svg xmlns="http://www.w3.org/2000/svg" version="1.1" width="300" height="300">
	<!-- Created with https://api.qrserver.com (QR Code API, see goQR.me/api for information) -->
	<title>QR Code</title>
	<desc>FLASHSEAT-DEMO-NO-REAL-PAYMENT</desc>
	<rect style="fill:rgb(255, 255, 255);fill-opacity:1" x="0" y="0" width="300" height="300" />
	<g id="elements">
		<path style="fill:rgb(0, 0, 0)" d="M 0,0 l 12,0 0,12 -12,0 z M 12,0 l 12,0 0,12 -12,0 z M 24,0 l 12,0 0,12 -12,0 z M 36,0 l 12,0 0,12 -12,0 z M 48,0 l 12,0 0,12 -12,0 z M 60,0 l 12,0 0,12 -12,0 z M 72,0 l 12,0 0,12 -12,0 z M 120,0 l 12,0 0,12 -12,0 z M 144,0 l 12,0 0,12 -12,0 z M 192,0 l 12,0 0,12 -12,0 z M 216,0 l 12,0 0,12 -12,0 z M 228,0 l 12,0 0,12 -12,0 z M 240,0 l 12,0 0,12 -12,0 z M 252,0 l 12,0 0,12 -12,0 z M 264,0 l 12,0 0,12 -12,0 z M 276,0 l 12,0 0,12 -12,0 z M 288,0 l 12,0 0,12 -12,0 z M 0,12 l 12,0 0,12 -12,0 z M 72,12 l 12,0 0,12 -12,0 z M 96,12 l 12,0 0,12 -12,0 z M 120,12 l 12,0 0,12 -12,0 z M 168,12 l 12,0 0,12 -12,0 z M 192,12 l 12,0 0,12 -12,0 z M 216,12 l 12,0 0,12 -12,0 z M 288,12 l 12,0 0,12 -12,0 z M 0,24 l 12,0 0,12 -12,0 z M 24,24 l 12,0 0,12 -12,0 z M 36,24 l 12,0 0,12 -12,0 z M 48,24 l 12,0 0,12 -12,0 z M 72,24 l 12,0 0,12 -12,0 z M 144,24 l 12,0 0,12 -12,0 z M 180,24 l 12,0 0,12 -12,0 z M 216,24 l 12,0 0,12 -12,0 z M 240,24 l 12,0 0,12 -12,0 z M 252,24 l 12,0 0,12 -12,0 z M 264,24 l 12,0 0,12 -12,0 z M 288,24 l 12,0 0,12 -12,0 z M 0,36 l 12,0 0,12 -12,0 z M 24,36 l 12,0 0,12 -12,0 z M 36,36 l 12,0 0,12 -12,0 z M 48,36 l 12,0 0,12 -12,0 z M 72,36 l 12,0 0,12 -12,0 z M 96,36 l 12,0 0,12 -12,0 z M 108,36 l 12,0 0,12 -12,0 z M 120,36 l 12,0 0,12 -12,0 z M 144,36 l 12,0 0,12 -12,0 z M 156,36 l 12,0 0,12 -12,0 z M 168,36 l 12,0 0,12 -12,0 z M 180,36 l 12,0 0,12 -12,0 z M 192,36 l 12,0 0,12 -12,0 z M 216,36 l 12,0 0,12 -12,0 z M 240,36 l 12,0 0,12 -12,0 z M 252,36 l 12,0 0,12 -12,0 z M 264,36 l 12,0 0,12 -12,0 z M 288,36 l 12,0 0,12 -12,0 z M 0,48 l 12,0 0,12 -12,0 z M 24,48 l 12,0 0,12 -12,0 z M 36,48 l 12,0 0,12 -12,0 z M 48,48 l 12,0 0,12 -12,0 z M 72,48 l 12,0 0,12 -12,0 z M 108,48 l 12,0 0,12 -12,0 z M 156,48 l 12,0 0,12 -12,0 z M 168,48 l 12,0 0,12 -12,0 z M 192,48 l 12,0 0,12 -12,0 z M 216,48 l 12,0 0,12 -12,0 z M 240,48 l 12,0 0,12 -12,0 z M 252,48 l 12,0 0,12 -12,0 z M 264,48 l 12,0 0,12 -12,0 z M 288,48 l 12,0 0,12 -12,0 z M 0,60 l 12,0 0,12 -12,0 z M 72,60 l 12,0 0,12 -12,0 z M 96,60 l 12,0 0,12 -12,0 z M 108,60 l 12,0 0,12 -12,0 z M 132,60 l 12,0 0,12 -12,0 z M 144,60 l 12,0 0,12 -12,0 z M 168,60 l 12,0 0,12 -12,0 z M 180,60 l 12,0 0,12 -12,0 z M 216,60 l 12,0 0,12 -12,0 z M 288,60 l 12,0 0,12 -12,0 z M 0,72 l 12,0 0,12 -12,0 z M 12,72 l 12,0 0,12 -12,0 z M 24,72 l 12,0 0,12 -12,0 z M 36,72 l 12,0 0,12 -12,0 z M 48,72 l 12,0 0,12 -12,0 z M 60,72 l 12,0 0,12 -12,0 z M 72,72 l 12,0 0,12 -12,0 z M 96,72 l 12,0 0,12 -12,0 z M 120,72 l 12,0 0,12 -12,0 z M 144,72 l 12,0 0,12 -12,0 z M 168,72 l 12,0 0,12 -12,0 z M 192,72 l 12,0 0,12 -12,0 z M 216,72 l 12,0 0,12 -12,0 z M 228,72 l 12,0 0,12 -12,0 z M 240,72 l 12,0 0,12 -12,0 z M 252,72 l 12,0 0,12 -12,0 z M 264,72 l 12,0 0,12 -12,0 z M 276,72 l 12,0 0,12 -12,0 z M 288,72 l 12,0 0,12 -12,0 z M 108,84 l 12,0 0,12 -12,0 z M 120,84 l 12,0 0,12 -12,0 z M 132,84 l 12,0 0,12 -12,0 z M 156,84 l 12,0 0,12 -12,0 z M 168,84 l 12,0 0,12 -12,0 z M 0,96 l 12,0 0,12 -12,0 z M 12,96 l 12,0 0,12 -12,0 z M 24,96 l 12,0 0,12 -12,0 z M 36,96 l 12,0 0,12 -12,0 z M 48,96 l 12,0 0,12 -12,0 z M 72,96 l 12,0 0,12 -12,0 z M 84,96 l 12,0 0,12 -12,0 z M 96,96 l 12,0 0,12 -12,0 z M 108,96 l 12,0 0,12 -12,0 z M 132,96 l 12,0 0,12 -12,0 z M 192,96 l 12,0 0,12 -12,0 z M 204,96 l 12,0 0,12 -12,0 z M 228,96 l 12,0 0,12 -12,0 z M 252,96 l 12,0 0,12 -12,0 z M 276,96 l 12,0 0,12 -12,0 z M 24,108 l 12,0 0,12 -12,0 z M 60,108 l 12,0 0,12 -12,0 z M 120,108 l 12,0 0,12 -12,0 z M 144,108 l 12,0 0,12 -12,0 z M 168,108 l 12,0 0,12 -12,0 z M 192,108 l 12,0 0,12 -12,0 z M 204,108 l 12,0 0,12 -12,0 z M 216,108 l 12,0 0,12 -12,0 z M 228,108 l 12,0 0,12 -12,0 z M 240,108 l 12,0 0,12 -12,0 z M 264,108 l 12,0 0,12 -12,0 z M 276,108 l 12,0 0,12 -12,0 z M 12,120 l 12,0 0,12 -12,0 z M 36,120 l 12,0 0,12 -12,0 z M 48,120 l 12,0 0,12 -12,0 z M 72,120 l 12,0 0,12 -12,0 z M 84,120 l 12,0 0,12 -12,0 z M 96,120 l 12,0 0,12 -12,0 z M 120,120 l 12,0 0,12 -12,0 z M 192,120 l 12,0 0,12 -12,0 z M 228,120 l 12,0 0,12 -12,0 z M 240,120 l 12,0 0,12 -12,0 z M 252,120 l 12,0 0,12 -12,0 z M 12,132 l 12,0 0,12 -12,0 z M 24,132 l 12,0 0,12 -12,0 z M 36,132 l 12,0 0,12 -12,0 z M 96,132 l 12,0 0,12 -12,0 z M 144,132 l 12,0 0,12 -12,0 z M 156,132 l 12,0 0,12 -12,0 z M 180,132 l 12,0 0,12 -12,0 z M 192,132 l 12,0 0,12 -12,0 z M 204,132 l 12,0 0,12 -12,0 z M 228,132 l 12,0 0,12 -12,0 z M 240,132 l 12,0 0,12 -12,0 z M 264,132 l 12,0 0,12 -12,0 z M 276,132 l 12,0 0,12 -12,0 z M 36,144 l 12,0 0,12 -12,0 z M 60,144 l 12,0 0,12 -12,0 z M 72,144 l 12,0 0,12 -12,0 z M 96,144 l 12,0 0,12 -12,0 z M 108,144 l 12,0 0,12 -12,0 z M 120,144 l 12,0 0,12 -12,0 z M 144,144 l 12,0 0,12 -12,0 z M 156,144 l 12,0 0,12 -12,0 z M 180,144 l 12,0 0,12 -12,0 z M 192,144 l 12,0 0,12 -12,0 z M 240,144 l 12,0 0,12 -12,0 z M 252,144 l 12,0 0,12 -12,0 z M 288,144 l 12,0 0,12 -12,0 z M 0,156 l 12,0 0,12 -12,0 z M 12,156 l 12,0 0,12 -12,0 z M 24,156 l 12,0 0,12 -12,0 z M 36,156 l 12,0 0,12 -12,0 z M 60,156 l 12,0 0,12 -12,0 z M 84,156 l 12,0 0,12 -12,0 z M 192,156 l 12,0 0,12 -12,0 z M 228,156 l 12,0 0,12 -12,0 z M 240,156 l 12,0 0,12 -12,0 z M 288,156 l 12,0 0,12 -12,0 z M 0,168 l 12,0 0,12 -12,0 z M 36,168 l 12,0 0,12 -12,0 z M 72,168 l 12,0 0,12 -12,0 z M 108,168 l 12,0 0,12 -12,0 z M 132,168 l 12,0 0,12 -12,0 z M 144,168 l 12,0 0,12 -12,0 z M 180,168 l 12,0 0,12 -12,0 z M 204,168 l 12,0 0,12 -12,0 z M 216,168 l 12,0 0,12 -12,0 z M 240,168 l 12,0 0,12 -12,0 z M 252,168 l 12,0 0,12 -12,0 z M 264,168 l 12,0 0,12 -12,0 z M 0,180 l 12,0 0,12 -12,0 z M 24,180 l 12,0 0,12 -12,0 z M 84,180 l 12,0 0,12 -12,0 z M 108,180 l 12,0 0,12 -12,0 z M 120,180 l 12,0 0,12 -12,0 z M 132,180 l 12,0 0,12 -12,0 z M 240,180 l 12,0 0,12 -12,0 z M 276,180 l 12,0 0,12 -12,0 z M 0,192 l 12,0 0,12 -12,0 z M 24,192 l 12,0 0,12 -12,0 z M 36,192 l 12,0 0,12 -12,0 z M 48,192 l 12,0 0,12 -12,0 z M 60,192 l 12,0 0,12 -12,0 z M 72,192 l 12,0 0,12 -12,0 z M 84,192 l 12,0 0,12 -12,0 z M 96,192 l 12,0 0,12 -12,0 z M 120,192 l 12,0 0,12 -12,0 z M 132,192 l 12,0 0,12 -12,0 z M 192,192 l 12,0 0,12 -12,0 z M 204,192 l 12,0 0,12 -12,0 z M 216,192 l 12,0 0,12 -12,0 z M 228,192 l 12,0 0,12 -12,0 z M 240,192 l 12,0 0,12 -12,0 z M 96,204 l 12,0 0,12 -12,0 z M 108,204 l 12,0 0,12 -12,0 z M 144,204 l 12,0 0,12 -12,0 z M 156,204 l 12,0 0,12 -12,0 z M 192,204 l 12,0 0,12 -12,0 z M 240,204 l 12,0 0,12 -12,0 z M 0,216 l 12,0 0,12 -12,0 z M 12,216 l 12,0 0,12 -12,0 z M 24,216 l 12,0 0,12 -12,0 z M 36,216 l 12,0 0,12 -12,0 z M 48,216 l 12,0 0,12 -12,0 z M 60,216 l 12,0 0,12 -12,0 z M 72,216 l 12,0 0,12 -12,0 z M 96,216 l 12,0 0,12 -12,0 z M 108,216 l 12,0 0,12 -12,0 z M 156,216 l 12,0 0,12 -12,0 z M 168,216 l 12,0 0,12 -12,0 z M 180,216 l 12,0 0,12 -12,0 z M 192,216 l 12,0 0,12 -12,0 z M 216,216 l 12,0 0,12 -12,0 z M 240,216 l 12,0 0,12 -12,0 z M 252,216 l 12,0 0,12 -12,0 z M 288,216 l 12,0 0,12 -12,0 z M 0,228 l 12,0 0,12 -12,0 z M 72,228 l 12,0 0,12 -12,0 z M 108,228 l 12,0 0,12 -12,0 z M 120,228 l 12,0 0,12 -12,0 z M 144,228 l 12,0 0,12 -12,0 z M 156,228 l 12,0 0,12 -12,0 z M 180,228 l 12,0 0,12 -12,0 z M 192,228 l 12,0 0,12 -12,0 z M 240,228 l 12,0 0,12 -12,0 z M 252,228 l 12,0 0,12 -12,0 z M 276,228 l 12,0 0,12 -12,0 z M 0,240 l 12,0 0,12 -12,0 z M 24,240 l 12,0 0,12 -12,0 z M 36,240 l 12,0 0,12 -12,0 z M 48,240 l 12,0 0,12 -12,0 z M 72,240 l 12,0 0,12 -12,0 z M 96,240 l 12,0 0,12 -12,0 z M 108,240 l 12,0 0,12 -12,0 z M 144,240 l 12,0 0,12 -12,0 z M 168,240 l 12,0 0,12 -12,0 z M 192,240 l 12,0 0,12 -12,0 z M 204,240 l 12,0 0,12 -12,0 z M 216,240 l 12,0 0,12 -12,0 z M 228,240 l 12,0 0,12 -12,0 z M 240,240 l 12,0 0,12 -12,0 z M 252,240 l 12,0 0,12 -12,0 z M 276,240 l 12,0 0,12 -12,0 z M 0,252 l 12,0 0,12 -12,0 z M 24,252 l 12,0 0,12 -12,0 z M 36,252 l 12,0 0,12 -12,0 z M 48,252 l 12,0 0,12 -12,0 z M 72,252 l 12,0 0,12 -12,0 z M 96,252 l 12,0 0,12 -12,0 z M 108,252 l 12,0 0,12 -12,0 z M 204,252 l 12,0 0,12 -12,0 z M 216,252 l 12,0 0,12 -12,0 z M 288,252 l 12,0 0,12 -12,0 z M 0,264 l 12,0 0,12 -12,0 z M 24,264 l 12,0 0,12 -12,0 z M 36,264 l 12,0 0,12 -12,0 z M 48,264 l 12,0 0,12 -12,0 z M 72,264 l 12,0 0,12 -12,0 z M 96,264 l 12,0 0,12 -12,0 z M 108,264 l 12,0 0,12 -12,0 z M 132,264 l 12,0 0,12 -12,0 z M 144,264 l 12,0 0,12 -12,0 z M 180,264 l 12,0 0,12 -12,0 z M 192,264 l 12,0 0,12 -12,0 z M 216,264 l 12,0 0,12 -12,0 z M 228,264 l 12,0 0,12 -12,0 z M 288,264 l 12,0 0,12 -12,0 z M 0,276 l 12,0 0,12 -12,0 z M 72,276 l 12,0 0,12 -12,0 z M 96,276 l 12,0 0,12 -12,0 z M 120,276 l 12,0 0,12 -12,0 z M 132,276 l 12,0 0,12 -12,0 z M 168,276 l 12,0 0,12 -12,0 z M 204,276 l 12,0 0,12 -12,0 z M 216,276 l 12,0 0,12 -12,0 z M 240,276 l 12,0 0,12 -12,0 z M 0,288 l 12,0 0,12 -12,0 z M 12,288 l 12,0 0,12 -12,0 z M 24,288 l 12,0 0,12 -12,0 z M 36,288 l 12,0 0,12 -12,0 z M 48,288 l 12,0 0,12 -12,0 z M 60,288 l 12,0 0,12 -12,0 z M 72,288 l 12,0 0,12 -12,0 z M 96,288 l 12,0 0,12 -12,0 z M 108,288 l 12,0 0,12 -12,0 z M 132,288 l 12,0 0,12 -12,0 z M 180,288 l 12,0 0,12 -12,0 z M 252,288 l 12,0 0,12 -12,0 z M 288,288 l 12,0 0,12 -12,0 z " />
	</g>
</svg>
